<svg xmlns="http://www.w3.org/2000/svg" width="1280" height="609" style="cursor: move;"><g><path class="link" marker-end="" d="M480,-5.5, 660,154.5" style="stroke-width: 0.76; stroke-opacity: 1; stroke: rgb(255, 68, 68);"></path><path class="link" marker-end="" d="M480,-5.5, 660,194.5" style="stroke-width: 0.76; stroke-opacity: 1; stroke: rgb(125, 125, 255);"></path><path class="link" marker-end="" d="M480,-5.5, 660,234.5" style="stroke-width: 0.76; stroke-opacity: 1; stroke: rgb(30, 30, 255);"></path><path class="link" marker-end="" d="M480,-5.5, 660,274.5" style="stroke-width: 0.76; stroke-opacity: 1; stroke: rgb(255, 220, 220);"></path><path class="link" marker-end="" d="M480,-5.5, 660,314.5" style="stroke-width: 0.76; stroke-opacity: 1; stroke: rgb(217, 217, 255);"></path><path class="link" marker-end="" d="M480,-5.5, 660,354.5" style="stroke-width: 0.76; stroke-opacity: 1; stroke: rgb(72, 72, 255);"></path><path class="link" marker-end="" d="M480,-5.5, 660,394.5" style="stroke-width: 0.76; stroke-opacity: 1; stroke: rgb(192, 192, 255);"></path><path class="link" marker-end="" d="M480,-5.5, 660,434.5" style="stroke-width: 0.76; stroke-opacity: 1; stroke: rgb(255, 106, 106);"></path><path class="link" marker-end="" d="M480,34.5, 660,154.5" style="stroke-width: 0.76; stroke-opacity: 1; stroke: rgb(255, 91, 91);"></path><path class="link" marker-end="" d="M480,34.5, 660,194.5" style="stroke-width: 0.76; stroke-opacity: 1; stroke: rgb(255, 61, 61);"></path><path class="link" marker-end="" d="M480,34.5, 660,234.5" style="stroke-width: 0.76; stroke-opacity: 1; stroke: rgb(255, 59, 59);"></path><path class="link" marker-end="" d="M480,34.5, 660,274.5" style="stroke-width: 0.76; stroke-opacity: 1; stroke: rgb(12, 12, 255);"></path><path class="link" marker-end="" d="M480,34.5, 660,314.5" style="stroke-width: 0.76; stroke-opacity: 1; stroke: rgb(32, 32, 255);"></path><path class="link" marker-end="" d="M480,34.5, 660,354.5" style="stroke-width: 0.76; stroke-opacity: 1; stroke: rgb(17, 17, 255);"></path><path class="link" marker-end="" d="M480,34.5, 660,394.5" style="stroke-width: 0.76; stroke-opacity: 1; stroke: rgb(218, 218, 255);"></path><path class="link" marker-end="" d="M480,34.5, 660,434.5" style="stroke-width: 0.76; stroke-opacity: 1; stroke: rgb(255, 137, 137);"></path><path class="link" marker-end="" d="M480,74.5, 660,154.5" style="stroke-width: 0.76; stroke-opacity: 1; stroke: rgb(106, 106, 255);"></path><path class="link" marker-end="" d="M480,74.5, 660,194.5" style="stroke-width: 0.76; stroke-opacity: 1; stroke: rgb(255, 55, 55);"></path><path class="link" marker-end="" d="M480,74.5, 660,234.5" style="stroke-width: 0.76; stroke-opacity: 1; stroke: rgb(255, 245, 245);"></path><path class="link" marker-end="" d="M480,74.5, 660,274.5" style="stroke-width: 0.76; stroke-opacity: 1; stroke: rgb(160, 160, 255);"></path><path class="link" marker-end="" d="M480,74.5, 660,314.5" style="stroke-width: 0.76; stroke-opacity: 1; stroke: rgb(74, 74, 255);"></path><path class="link" marker-end="" d="M480,74.5, 660,354.5" style="stroke-width: 0.76; stroke-opacity: 1; stroke: rgb(54, 54, 255);"></path><path class="link" marker-end="" d="M480,74.5, 660,394.5" style="stroke-width: 0.76; stroke-opacity: 1; stroke: rgb(255, 18, 18);"></path><path class="link" marker-end="" d="M480,74.5, 660,434.5" style="stroke-width: 0.76; stroke-opacity: 1; stroke: rgb(221, 221, 255);"></path><path class="link" marker-end="" d="M480,114.5, 660,154.5" style="stroke-width: 0.76; stroke-opacity: 1; stroke: rgb(255, 1, 1);"></path><path class="link" marker-end="" d="M480,114.5, 660,194.5" style="stroke-width: 0.76; stroke-opacity: 1; stroke: rgb(255, 46, 46);"></path><path class="link" marker-end="" d="M480,114.5, 660,234.5" style="stroke-width: 0.76; stroke-opacity: 1; stroke: rgb(64, 64, 255);"></path><path class="link" marker-end="" d="M480,114.5, 660,274.5" style="stroke-width: 0.76; stroke-opacity: 1; stroke: rgb(255, 251, 251);"></path><path class="link" marker-end="" d="M480,114.5, 660,314.5" style="stroke-width: 0.76; stroke-opacity: 1; stroke: rgb(127, 127, 255);"></path><path class="link" marker-end="" d="M480,114.5, 660,354.5" style="stroke-width: 0.76; stroke-opacity: 1; stroke: rgb(237, 237, 255);"></path><path class="link" marker-end="" d="M480,114.5, 660,394.5" style="stroke-width: 0.76; stroke-opacity: 1; stroke: rgb(93, 93, 255);"></path><path class="link" marker-end="" d="M480,114.5, 660,434.5" style="stroke-width: 0.76; stroke-opacity: 1; stroke: rgb(19, 19, 255);"></path><path class="link" marker-end="" d="M480,154.5, 660,154.5" style="stroke-width: 0.76; stroke-opacity: 1; stroke: rgb(168, 168, 255);"></path><path class="link" marker-end="" d="M480,154.5, 660,194.5" style="stroke-width: 0.76; stroke-opacity: 1; stroke: rgb(32, 32, 255);"></path><path class="link" marker-end="" d="M480,154.5, 660,234.5" style="stroke-width: 0.76; stroke-opacity: 1; stroke: rgb(184, 184, 255);"></path><path class="link" marker-end="" d="M480,154.5, 660,274.5" style="stroke-width: 0.76; stroke-opacity: 1; stroke: rgb(255, 70, 70);"></path><path class="link" marker-end="" d="M480,154.5, 660,314.5" style="stroke-width: 0.76; stroke-opacity: 1; stroke: rgb(255, 172, 172);"></path><path class="link" marker-end="" d="M480,154.5, 660,354.5" style="stroke-width: 0.76; stroke-opacity: 1; stroke: rgb(220, 220, 255);"></path><path class="link" marker-end="" d="M480,154.5, 660,394.5" style="stroke-width: 0.76; stroke-opacity: 1; stroke: rgb(126, 126, 255);"></path><path class="link" marker-end="" d="M480,154.5, 660,434.5" style="stroke-width: 0.76; stroke-opacity: 1; stroke: rgb(255, 190, 190);"></path><path class="link" marker-end="" d="M480,194.5, 660,154.5" style="stroke-width: 0.76; stroke-opacity: 1; stroke: rgb(86, 86, 255);"></path><path class="link" marker-end="" d="M480,194.5, 660,194.5" style="stroke-width: 0.76; stroke-opacity: 1; stroke: rgb(255, 127, 127);"></path><path class="link" marker-end="" d="M480,194.5, 660,234.5" style="stroke-width: 0.76; stroke-opacity: 1; stroke: rgb(255, 207, 207);"></path><path class="link" marker-end="" d="M480,194.5, 660,274.5" style="stroke-width: 0.76; stroke-opacity: 1; stroke: rgb(142, 142, 255);"></path><path class="link" marker-end="" d="M480,194.5, 660,314.5" style="stroke-width: 0.76; stroke-opacity: 1; stroke: rgb(255, 103, 103);"></path><path class="link" marker-end="" d="M480,194.5, 660,354.5" style="stroke-width: 0.76; stroke-opacity: 1; stroke: rgb(16, 16, 255);"></path><path class="link" marker-end="" d="M480,194.5, 660,394.5" style="stroke-width: 0.76; stroke-opacity: 1; stroke: rgb(82, 82, 255);"></path><path class="link" marker-end="" d="M480,194.5, 660,434.5" style="stroke-width: 0.76; stroke-opacity: 1; stroke: rgb(255, 25, 25);"></path><path class="link" marker-end="" d="M480,234.5, 660,154.5" style="stroke-width: 0.76; stroke-opacity: 1; stroke: rgb(211, 211, 255);"></path><path class="link" marker-end="" d="M480,234.5, 660,194.5" style="stroke-width: 0.76; stroke-opacity: 1; stroke: rgb(255, 199, 199);"></path><path class="link" marker-end="" d="M480,234.5, 660,234.5" style="stroke-width: 0.76; stroke-opacity: 1; stroke: rgb(43, 43, 255);"></path><path class="link" marker-end="" d="M480,234.5, 660,274.5" style="stroke-width: 0.76; stroke-opacity: 1; stroke: rgb(255, 57, 57);"></path><path class="link" marker-end="" d="M480,234.5, 660,314.5" style="stroke-width: 0.76; stroke-opacity: 1; stroke: rgb(255, 218, 218);"></path><path class="link" marker-end="" d="M480,234.5, 660,354.5" style="stroke-width: 0.76; stroke-opacity: 1; stroke: rgb(141, 141, 255);"></path><path class="link" marker-end="" d="M480,234.5, 660,394.5" style="stroke-width: 0.76; stroke-opacity: 1; stroke: rgb(75, 75, 255);"></path><path class="link" marker-end="" d="M480,234.5, 660,434.5" style="stroke-width: 0.76; stroke-opacity: 1; stroke: rgb(33, 33, 255);"></path><path class="link" marker-end="" d="M480,274.5, 660,154.5" style="stroke-width: 0.76; stroke-opacity: 1; stroke: rgb(164, 164, 255);"></path><path class="link" marker-end="" d="M480,274.5, 660,194.5" style="stroke-width: 0.76; stroke-opacity: 1; stroke: rgb(243, 243, 255);"></path><path class="link" marker-end="" d="M480,274.5, 660,234.5" style="stroke-width: 0.76; stroke-opacity: 1; stroke: rgb(255, 90, 90);"></path><path class="link" marker-end="" d="M480,274.5, 660,274.5" style="stroke-width: 0.76; stroke-opacity: 1; stroke: rgb(63, 63, 255);"></path><path class="link" marker-end="" d="M480,274.5, 660,314.5" style="stroke-width: 0.76; stroke-opacity: 1; stroke: rgb(255, 58, 58);"></path><path class="link" marker-end="" d="M480,274.5, 660,354.5" style="stroke-width: 0.76; stroke-opacity: 1; stroke: rgb(90, 90, 255);"></path><path class="link" marker-end="" d="M480,274.5, 660,394.5" style="stroke-width: 0.76; stroke-opacity: 1; stroke: rgb(255, 82, 82);"></path><path class="link" marker-end="" d="M480,274.5, 660,434.5" style="stroke-width: 0.76; stroke-opacity: 1; stroke: rgb(255, 52, 52);"></path><path class="link" marker-end="" d="M480,314.5, 660,154.5" style="stroke-width: 0.76; stroke-opacity: 1; stroke: rgb(255, 225, 225);"></path><path class="link" marker-end="" d="M480,314.5, 660,194.5" style="stroke-width: 0.76; stroke-opacity: 1; stroke: rgb(154, 154, 255);"></path><path class="link" marker-end="" d="M480,314.5, 660,234.5" style="stroke-width: 0.76; stroke-opacity: 1; stroke: rgb(151, 151, 255);"></path><path class="link" marker-end="" d="M480,314.5, 660,274.5" style="stroke-width: 0.76; stroke-opacity: 1; stroke: rgb(138, 138, 255);"></path><path class="link" marker-end="" d="M480,314.5, 660,314.5" style="stroke-width: 0.76; stroke-opacity: 1; stroke: rgb(22, 22, 255);"></path><path class="link" marker-end="" d="M480,314.5, 660,354.5" style="stroke-width: 0.76; stroke-opacity: 1; stroke: rgb(255, 51, 51);"></path><path class="link" marker-end="" d="M480,314.5, 660,394.5" style="stroke-width: 0.76; stroke-opacity: 1; stroke: rgb(255, 55, 55);"></path><path class="link" marker-end="" d="M480,314.5, 660,434.5" style="stroke-width: 0.76; stroke-opacity: 1; stroke: rgb(110, 110, 255);"></path><path class="link" marker-end="" d="M480,354.5, 660,154.5" style="stroke-width: 0.76; stroke-opacity: 1; stroke: rgb(51, 51, 255);"></path><path class="link" marker-end="" d="M480,354.5, 660,194.5" style="stroke-width: 0.76; stroke-opacity: 1; stroke: rgb(255, 68, 68);"></path><path class="link" marker-end="" d="M480,354.5, 660,234.5" style="stroke-width: 0.76; stroke-opacity: 1; stroke: rgb(255, 247, 247);"></path><path class="link" marker-end="" d="M480,354.5, 660,274.5" style="stroke-width: 0.76; stroke-opacity: 1; stroke: rgb(255, 20, 20);"></path><path class="link" marker-end="" d="M480,354.5, 660,314.5" style="stroke-width: 0.76; stroke-opacity: 1; stroke: rgb(255, 94, 94);"></path><path class="link" marker-end="" d="M480,354.5, 660,354.5" style="stroke-width: 0.76; stroke-opacity: 1; stroke: rgb(67, 67, 255);"></path><path class="link" marker-end="" d="M480,354.5, 660,394.5" style="stroke-width: 0.76; stroke-opacity: 1; stroke: rgb(141, 141, 255);"></path><path class="link" marker-end="" d="M480,354.5, 660,434.5" style="stroke-width: 0.76; stroke-opacity: 1; stroke: rgb(117, 117, 255);"></path><path class="link" marker-end="" d="M480,394.5, 660,154.5" style="stroke-width: 0.76; stroke-opacity: 1; stroke: rgb(255, 178, 178);"></path><path class="link" marker-end="" d="M480,394.5, 660,194.5" style="stroke-width: 0.76; stroke-opacity: 1; stroke: rgb(255, 215, 215);"></path><path class="link" marker-end="" d="M480,394.5, 660,234.5" style="stroke-width: 0.76; stroke-opacity: 1; stroke: rgb(198, 198, 255);"></path><path class="link" marker-end="" d="M480,394.5, 660,274.5" style="stroke-width: 0.76; stroke-opacity: 1; stroke: rgb(105, 105, 255);"></path><path class="link" marker-end="" d="M480,394.5, 660,314.5" style="stroke-width: 0.76; stroke-opacity: 1; stroke: rgb(167, 167, 255);"></path><path class="link" marker-end="" d="M480,394.5, 660,354.5" style="stroke-width: 0.76; stroke-opacity: 1; stroke: rgb(255, 185, 185);"></path><path class="link" marker-end="" d="M480,394.5, 660,394.5" style="stroke-width: 0.76; stroke-opacity: 1; stroke: rgb(160, 160, 255);"></path><path class="link" marker-end="" d="M480,394.5, 660,434.5" style="stroke-width: 0.76; stroke-opacity: 1; stroke: rgb(255, 220, 220);"></path><path class="link" marker-end="" d="M480,434.5, 660,154.5" style="stroke-width: 0.76; stroke-opacity: 1; stroke: rgb(255, 245, 245);"></path><path class="link" marker-end="" d="M480,434.5, 660,194.5" style="stroke-width: 0.76; stroke-opacity: 1; stroke: rgb(255, 121, 121);"></path><path class="link" marker-end="" d="M480,434.5, 660,234.5" style="stroke-width: 0.76; stroke-opacity: 1; stroke: rgb(231, 231, 255);"></path><path class="link" marker-end="" d="M480,434.5, 660,274.5" style="stroke-width: 0.76; stroke-opacity: 1; stroke: rgb(255, 241, 241);"></path><path class="link" marker-end="" d="M480,434.5, 660,314.5" style="stroke-width: 0.76; stroke-opacity: 1; stroke: rgb(255, 18, 18);"></path><path class="link" marker-end="" d="M480,434.5, 660,354.5" style="stroke-width: 0.76; stroke-opacity: 1; stroke: rgb(69, 69, 255);"></path><path class="link" marker-end="" d="M480,434.5, 660,394.5" style="stroke-width: 0.76; stroke-opacity: 1; stroke: rgb(193, 193, 255);"></path><path class="link" marker-end="" d="M480,434.5, 660,434.5" style="stroke-width: 0.76; stroke-opacity: 1; stroke: rgb(130, 130, 255);"></path><path class="link" marker-end="" d="M480,474.5, 660,154.5" style="stroke-width: 0.76; stroke-opacity: 1; stroke: rgb(255, 177, 177);"></path><path class="link" marker-end="" d="M480,474.5, 660,194.5" style="stroke-width: 0.76; stroke-opacity: 1; stroke: rgb(255, 71, 71);"></path><path class="link" marker-end="" d="M480,474.5, 660,234.5" style="stroke-width: 0.76; stroke-opacity: 1; stroke: rgb(255, 163, 163);"></path><path class="link" marker-end="" d="M480,474.5, 660,274.5" style="stroke-width: 0.76; stroke-opacity: 1; stroke: rgb(255, 50, 50);"></path><path class="link" marker-end="" d="M480,474.5, 660,314.5" style="stroke-width: 0.76; stroke-opacity: 1; stroke: rgb(101, 101, 255);"></path><path class="link" marker-end="" d="M480,474.5, 660,354.5" style="stroke-width: 0.76; stroke-opacity: 1; stroke: rgb(255, 155, 155);"></path><path class="link" marker-end="" d="M480,474.5, 660,394.5" style="stroke-width: 0.76; stroke-opacity: 1; stroke: rgb(255, 254, 254);"></path><path class="link" marker-end="" d="M480,474.5, 660,434.5" style="stroke-width: 0.76; stroke-opacity: 1; stroke: rgb(143, 143, 255);"></path><path class="link" marker-end="" d="M480,514.5, 660,154.5" style="stroke-width: 0.76; stroke-opacity: 1; stroke: rgb(255, 249, 249);"></path><path class="link" marker-end="" d="M480,514.5, 660,194.5" style="stroke-width: 0.76; stroke-opacity: 1; stroke: rgb(195, 195, 255);"></path><path class="link" marker-end="" d="M480,514.5, 660,234.5" style="stroke-width: 0.76; stroke-opacity: 1; stroke: rgb(255, 237, 237);"></path><path class="link" marker-end="" d="M480,514.5, 660,274.5" style="stroke-width: 0.76; stroke-opacity: 1; stroke: rgb(255, 50, 50);"></path><path class="link" marker-end="" d="M480,514.5, 660,314.5" style="stroke-width: 0.76; stroke-opacity: 1; stroke: rgb(255, 100, 100);"></path><path class="link" marker-end="" d="M480,514.5, 660,354.5" style="stroke-width: 0.76; stroke-opacity: 1; stroke: rgb(255, 50, 50);"></path><path class="link" marker-end="" d="M480,514.5, 660,394.5" style="stroke-width: 0.76; stroke-opacity: 1; stroke: rgb(255, 247, 247);"></path><path class="link" marker-end="" d="M480,514.5, 660,434.5" style="stroke-width: 0.76; stroke-opacity: 1; stroke: rgb(255, 126, 126);"></path><path class="link" marker-end="" d="M480,554.5, 660,154.5" style="stroke-width: 0.76; stroke-opacity: 1; stroke: rgb(217, 217, 255);"></path><path class="link" marker-end="" d="M480,554.5, 660,194.5" style="stroke-width: 0.76; stroke-opacity: 1; stroke: rgb(255, 113, 113);"></path><path class="link" marker-end="" d="M480,554.5, 660,234.5" style="stroke-width: 0.76; stroke-opacity: 1; stroke: rgb(255, 5, 5);"></path><path class="link" marker-end="" d="M480,554.5, 660,274.5" style="stroke-width: 0.76; stroke-opacity: 1; stroke: rgb(103, 103, 255);"></path><path class="link" marker-end="" d="M480,554.5, 660,314.5" style="stroke-width: 0.76; stroke-opacity: 1; stroke: rgb(129, 129, 255);"></path><path class="link" marker-end="" d="M480,554.5, 660,354.5" style="stroke-width: 0.76; stroke-opacity: 1; stroke: rgb(255, 75, 75);"></path><path class="link" marker-end="" d="M480,554.5, 660,394.5" style="stroke-width: 0.76; stroke-opacity: 1; stroke: rgb(117, 117, 255);"></path><path class="link" marker-end="" d="M480,554.5, 660,434.5" style="stroke-width: 0.76; stroke-opacity: 1; stroke: rgb(255, 103, 103);"></path><path class="link" marker-end="" d="M480,594.5, 660,154.5" style="stroke-width: 0.76; stroke-opacity: 1; stroke: rgb(255, 185, 185);"></path><path class="link" marker-end="" d="M480,594.5, 660,194.5" style="stroke-width: 0.76; stroke-opacity: 1; stroke: rgb(58, 58, 255);"></path><path class="link" marker-end="" d="M480,594.5, 660,234.5" style="stroke-width: 0.76; stroke-opacity: 1; stroke: rgb(255, 122, 122);"></path><path class="link" marker-end="" d="M480,594.5, 660,274.5" style="stroke-width: 0.76; stroke-opacity: 1; stroke: rgb(255, 235, 235);"></path><path class="link" marker-end="" d="M480,594.5, 660,314.5" style="stroke-width: 0.76; stroke-opacity: 1; stroke: rgb(255, 114, 114);"></path><path class="link" marker-end="" d="M480,594.5, 660,354.5" style="stroke-width: 0.76; stroke-opacity: 1; stroke: rgb(255, 85, 85);"></path><path class="link" marker-end="" d="M480,594.5, 660,394.5" style="stroke-width: 0.76; stroke-opacity: 1; stroke: rgb(255, 249, 249);"></path><path class="link" marker-end="" d="M480,594.5, 660,434.5" style="stroke-width: 0.76; stroke-opacity: 1; stroke: rgb(208, 208, 255);"></path><path class="link" marker-end="" d="M660,154.5, 840,294.5" style="stroke-width: 0.76; stroke-opacity: 1; stroke: rgb(255, 18, 18);"></path><path class="link" marker-end="" d="M660,194.5, 840,294.5" style="stroke-width: 0.76; stroke-opacity: 1; stroke: rgb(255, 53, 53);"></path><path class="link" marker-end="" d="M660,234.5, 840,294.5" style="stroke-width: 0.76; stroke-opacity: 1; stroke: rgb(255, 208, 208);"></path><path class="link" marker-end="" d="M660,274.5, 840,294.5" style="stroke-width: 0.76; stroke-opacity: 1; stroke: rgb(255, 224, 224);"></path><path class="link" marker-end="" d="M660,314.5, 840,294.5" style="stroke-width: 0.76; stroke-opacity: 1; stroke: rgb(255, 192, 192);"></path><path class="link" marker-end="" d="M660,354.5, 840,294.5" style="stroke-width: 0.76; stroke-opacity: 1; stroke: rgb(255, 92, 92);"></path><path class="link" marker-end="" d="M660,394.5, 840,294.5" style="stroke-width: 0.76; stroke-opacity: 1; stroke: rgb(255, 187, 187);"></path><path class="link" marker-end="" d="M660,434.5, 840,294.5" style="stroke-width: 0.76; stroke-opacity: 1; stroke: rgb(150, 150, 255);"></path><circle r="10" class="node" id="0_0" cx="480" cy="-5.5" style="fill: rgb(255, 255, 255); stroke: rgb(51, 51, 51);"></circle><circle r="10" class="node" id="0_1" cx="480" cy="34.5" style="fill: rgb(255, 255, 255); stroke: rgb(51, 51, 51);"></circle><circle r="10" class="node" id="0_2" cx="480" cy="74.5" style="fill: rgb(255, 255, 255); stroke: rgb(51, 51, 51);"></circle><circle r="10" class="node" id="0_3" cx="480" cy="114.5" style="fill: rgb(255, 255, 255); stroke: rgb(51, 51, 51);"></circle><circle r="10" class="node" id="0_4" cx="480" cy="154.5" style="fill: rgb(255, 255, 255); stroke: rgb(51, 51, 51);"></circle><circle r="10" class="node" id="0_5" cx="480" cy="194.5" style="fill: rgb(255, 255, 255); stroke: rgb(51, 51, 51);"></circle><circle r="10" class="node" id="0_6" cx="480" cy="234.5" style="fill: rgb(255, 255, 255); stroke: rgb(51, 51, 51);"></circle><circle r="10" class="node" id="0_7" cx="480" cy="274.5" style="fill: rgb(255, 255, 255); stroke: rgb(51, 51, 51);"></circle><circle r="10" class="node" id="0_8" cx="480" cy="314.5" style="fill: rgb(255, 255, 255); stroke: rgb(51, 51, 51);"></circle><circle r="10" class="node" id="0_9" cx="480" cy="354.5" style="fill: rgb(255, 255, 255); stroke: rgb(51, 51, 51);"></circle><circle r="10" class="node" id="0_10" cx="480" cy="394.5" style="fill: rgb(255, 255, 255); stroke: rgb(51, 51, 51);"></circle><circle r="10" class="node" id="0_11" cx="480" cy="434.5" style="fill: rgb(255, 255, 255); stroke: rgb(51, 51, 51);"></circle><circle r="10" class="node" id="0_12" cx="480" cy="474.5" style="fill: rgb(255, 255, 255); stroke: rgb(51, 51, 51);"></circle><circle r="10" class="node" id="0_13" cx="480" cy="514.5" style="fill: rgb(255, 255, 255); stroke: rgb(51, 51, 51);"></circle><circle r="10" class="node" id="0_14" cx="480" cy="554.5" style="fill: rgb(255, 255, 255); stroke: rgb(51, 51, 51);"></circle><circle r="10" class="node" id="0_15" cx="480" cy="594.5" style="fill: rgb(255, 255, 255); stroke: rgb(51, 51, 51);"></circle><circle r="10" class="node" id="1_0" cx="660" cy="154.5" style="fill: rgb(255, 255, 255); stroke: rgb(51, 51, 51);"></circle><circle r="10" class="node" id="1_1" cx="660" cy="194.5" style="fill: rgb(255, 255, 255); stroke: rgb(51, 51, 51);"></circle><circle r="10" class="node" id="1_2" cx="660" cy="234.5" style="fill: rgb(255, 255, 255); stroke: rgb(51, 51, 51);"></circle><circle r="10" class="node" id="1_3" cx="660" cy="274.5" style="fill: rgb(255, 255, 255); stroke: rgb(51, 51, 51);"></circle><circle r="10" class="node" id="1_4" cx="660" cy="314.5" style="fill: rgb(255, 255, 255); stroke: rgb(51, 51, 51);"></circle><circle r="10" class="node" id="1_5" cx="660" cy="354.5" style="fill: rgb(255, 255, 255); stroke: rgb(51, 51, 51);"></circle><circle r="10" class="node" id="1_6" cx="660" cy="394.5" style="fill: rgb(255, 255, 255); stroke: rgb(51, 51, 51);"></circle><circle r="10" class="node" id="1_7" cx="660" cy="434.5" style="fill: rgb(255, 255, 255); stroke: rgb(51, 51, 51);"></circle><circle r="10" class="node" id="2_0" cx="840" cy="294.5" style="fill: rgb(255, 255, 255); stroke: rgb(51, 51, 51);"></circle><text class="text" dy=".35em" x="445" y="634.5" style="font-size: 12px;">Input Layer ∈ ℝ¹⁶</text><text class="text" dy=".35em" x="625" y="634.5" style="font-size: 12px;">Hidden Layer ∈ ℝ⁸</text><text class="text" dy=".35em" x="805" y="634.5" style="font-size: 12px;">Output Layer ∈ ℝ¹</text></g><defs><marker id="arrow" viewBox="0 -5 10 10" markerWidth="7" markerHeight="7" orient="auto" refX="40"><path d="M0,-5L10,0L0,5" style="stroke: rgb(80, 80, 80); fill: none;"></path></marker></defs></svg>